<svg width="32" height="32"><path d="M19.116 14.86c.773 0 1.399-.783 1.399-1.75 0-.965-.626-1.748-1.399-1.748s-1.399.783-1.399 1.749c0 .966.626 1.748 1.4 1.748zM12.88 14.86c.772 0 1.398-.783 1.398-1.75 0-.965-.626-1.748-1.399-1.748-.772 0-1.399.783-1.399 1.749 0 .966.627 1.748 1.4 1.748z"/><path fill-rule="evenodd" clip-rule="evenodd" d="M25.04 19.257v-5.94a9.04 9.04 0 0 0-18.079 0v5.94c0 2.893 0 4.34.563 5.444a5.165 5.165 0 0 0 2.258 2.258c1.104.562 2.55.562 5.444.562h1.55c2.892 0 4.338 0 5.443-.562a5.165 5.165 0 0 0 2.258-2.258c.563-1.105.563-2.551.563-5.444zm-15.497-5.94a6.457 6.457 0 0 1 12.914 0v1.46c0 1.478-.849 2.83-2.282 3.19a17.227 17.227 0 0 1-4.175.515c-1.653 0-3.084-.24-4.175-.515-1.433-.36-2.282-1.712-2.282-3.19z"/><path d="M28.268 14.4a1.5 1.5 0 0 1 1.5 1.5v6.456a1.5 1.5 0 0 1-3 0V15.9a1.5 1.5 0 0 1 1.5-1.5zM5.233 15.9a1.5 1.5 0 0 0-3 0v6.456a1.5 1.5 0 0 0 3 0z"/></svg>