<svg width="32" height="32"><path d="M10.177 20.708h3.409c.43 0 .645 0 .853.023a3.882 3.882 0 0 1 1.621.556c.179.11.348.242.688.506l3.568 2.775c2.145 1.669 3.217 2.503 4.118 2.495a2.588 2.588 0 0 0 2.007-.982C27 25.375 27 24.017 27 21.3V9.763c0-2.717 0-4.075-.559-4.781A2.588 2.588 0 0 0 24.434 4c-.9-.008-1.973.826-4.118 2.495L16.748 9.27c-.34.264-.51.396-.688.506a3.883 3.883 0 0 1-1.62.556c-.21.023-.424.023-.855.023h-3.409a5.176 5.176 0 1 0 0 10.353z"/><path d="M10.298 23.174c-.122.26-.122.597-.122 1.27v1.44a2.588 2.588 0 1 0 5.177 0v-1.44c0-.673 0-1.01-.122-1.27a1.294 1.294 0 0 0-.624-.624c-.26-.122-.597-.122-1.269-.122h-1.147c-.672 0-1.008 0-1.269.122-.274.129-.495.35-.624.624z"/></svg>