<svg width="32" height="32"><path d="M20.39 7.032C18.391 5.162 15.595 4 12.5 4c-6.075 0-11 4.477-11 10 0 3.15 1.471 5.732 3.975 7.565.32.234.615 1.537-.099 2.63-.291.448-.613.796-.86 1.064-.358.387-.56.607-.297.718.275.115 1.9.172 3.074-.486.918-.515 1.474-1.028 1.849-1.374.31-.286.495-.458.659-.42.585.134 1.19.226 1.809.27l.025.003c.286.02.574.03.865.03 6.075 0 11-4.477 11-10 0-2.71-1.185-5.167-3.11-6.968z"/><path d="M30.5 17c0-3.907-2.464-7.29-6.057-8.936-.437-.2-.83.312-.602.734A10.862 10.862 0 0 1 25.16 14c0 5.604-4.216 10.115-9.688 11.334-.48.107-.587.757-.125.929 1.281.475 2.684.737 4.153.737.931 0 1.836-.105 2.7-.303.163-.038.348.134.658.42.375.345.93.86 1.85 1.374 1.172.658 2.798.601 3.073.486.264-.11.06-.33-.297-.718a7.91 7.91 0 0 1-.86-1.063c-.714-1.094-.42-2.397-.099-2.631C29.029 22.732 30.5 20.15 30.5 17z"/></svg>