<svg width="32" height="32"><path d="M4.213 7.538C4 8.146 4 8.902 4 10.414c0 .252 0 .378.035.479a.631.631 0 0 0 .388.387c.101.036.227.036.48.036h22.34c.117 0 .175 0 .224-.008a.631.631 0 0 0 .525-.525c.008-.05.008-.108.008-.225 0-.47 0-.704-.031-.9a2.526 2.526 0 0 0-2.1-2.1c-.196-.032-.431-.032-.9-.032h-7.814c-.213 0-.32 0-.422-.005a3.79 3.79 0 0 1-2.325-.963c-.077-.069-.152-.144-.303-.295-.15-.15-.226-.226-.302-.294a3.79 3.79 0 0 0-2.325-.963C11.375 5 11.268 5 11.056 5H9.414c-1.512 0-2.268 0-2.876.213a3.79 3.79 0 0 0-2.325 2.325zM4.207 14.877C4 15.282 4 15.812 4 16.874v1.516c0 2.83 0 4.244.55 5.325a5.053 5.053 0 0 0 2.209 2.208c1.08.55 2.495.55 5.325.55h7.832c2.83 0 4.244 0 5.325-.55a5.053 5.053 0 0 0 2.208-2.208C28 22.635 28 21.219 28 18.39v-1.516c0-1.061 0-1.592-.206-1.997a1.895 1.895 0 0 0-.828-.828c-.406-.207-.936-.207-1.998-.207H7.032c-1.062 0-1.592 0-1.997.207a1.895 1.895 0 0 0-.828.828z"/></svg>