<svg width="32" height="32"><path d="M12.333 15.333a4.667 4.667 0 1 0 0-9.333 4.667 4.667 0 0 0 0 9.333zM3 23.365A2.635 2.635 0 0 0 5.635 26h13.403a2.635 2.635 0 0 0 2.629-2.635c0-.783-.17-1.566-.64-2.172a2.52 2.52 0 0 0-.219-.249 8.53 8.53 0 0 0-1.443-1.144c-1.46-.93-3.714-1.8-7.032-1.8-4.716 0-7.281 1.76-8.475 2.944C3.223 21.575 3 22.47 3 23.365zM23.102 26h5.721A2.177 2.177 0 0 0 31 23.823c0-.758-.194-1.514-.74-2.04-1.024-.987-3.223-2.45-7.26-2.45-.226 0-.445.005-.66.014l.028.027c1.216 1.208 1.512 2.784 1.512 3.991 0 .972-.286 1.877-.778 2.635zM23 16.667a4 4 0 1 0 0-8 4 4 0 0 0 0 8z"/></svg>