<svg width="24" height="24" fill="none" xmlns="http://www.w3.org/2000/svg"><path d="M11.54 3.121a3.296 3.296 0 0 0-1.16.334c-.579.28-8.303 4.578-8.497 4.729-.865.67-.954 2.007-.186 2.788.117.119.31.272.428.339.118.068 2.005 1.088 4.194 2.267 4.301 2.318 4.375 2.353 5.09 2.419.718.066 1.332-.063 2.066-.435.256-.13 2.013-1.072 3.905-2.094a299.895 299.895 0 0 1 3.451-1.848c.006.005.03.835.053 1.844.04 1.702.049 1.848.123 2.006.106.226.275.34.533.362.317.026.617-.171.696-.457.02-.073.012-1.114-.02-2.491l-.055-2.366.1-.296c.274-.816-.046-1.695-.789-2.172-.457-.293-7.684-4.418-8.052-4.596a3.489 3.489 0 0 0-1.88-.333m1.1 1.433c.242.093 8.03 4.544 8.212 4.693a.47.47 0 0 1 .147.246c.029.13.016.186-.086.38-.065.125-.167.256-.226.293-.388.238-7.998 4.309-8.207 4.39-.226.087-.323.1-.74.101-.41 0-.515-.014-.72-.095-.211-.083-7.635-4.058-8.164-4.371-.255-.151-.336-.283-.336-.548 0-.176.018-.223.13-.34.086-.09 1.508-.9 4.17-2.374 4.636-2.568 4.237-2.353 4.509-2.429.31-.087 1.022-.058 1.311.054m6.21 9.297-.649.369-.001.84c0 .462-.019.907-.042.988a.688.688 0 0 1-.155.262c-.108.109-5.246 3.084-5.609 3.249-.239.109-.556.103-.834-.013-.481-.202-6.026-3.149-6.145-3.265-.183-.179-.215-.371-.215-1.273v-.797l-.65-.343-.65-.343-.011 1.248c-.006.759.006 1.326.032 1.45.09.435.389.905.759 1.191.148.115 4.522 2.438 6.04 3.209.549.279.856.35 1.4.326.312-.014.487-.043.68-.116.286-.106 5.623-3.155 5.933-3.388.33-.249.596-.648.724-1.088.054-.187.062-.426.054-1.548l-.011-1.328-.65.37" fill-rule="evenodd" fill="#000"/></svg>