<svg width="24" height="24" fill="none" xmlns="http://www.w3.org/2000/svg"><path d="M10.85 2.743c-1.698.206-3.386.927-4.75 2.029-.439.354-1.222 1.169-1.564 1.628C3.53 7.746 2.922 9.287 2.72 10.999c-.06.509-.049 1.651.022 2.189a9.297 9.297 0 0 0 2.764 5.496c.519.507.816.746 1.388 1.122.921.603 1.812.99 2.915 1.268.204.051.373.125.5.218.282.207.729.42 1.081.515.407.11 1.145.119 1.548.019.383-.094.955-.374 1.235-.602.195-.159.328-.222.82-.389.989-.335 2.099-.94 2.847-1.553 1.578-1.293 2.71-3.051 3.205-4.98.313-1.219.364-2.787.131-4.015-.471-2.477-1.912-4.646-4.036-6.074-.878-.591-2.081-1.097-3.161-1.331-.912-.198-2.179-.254-3.129-.139m1.89 1.298A7.98 7.98 0 0 1 19.182 8.5a7.987 7.987 0 0 1-.941 8.494c-.689.861-1.646 1.648-2.557 2.105l-.295.148.025-.129c.014-.07.026-.51.026-.978v-.849l.17-.065c.094-.036.309-.155.48-.264.789-.506 1.23-1.234 1.23-2.03 0-.265-.01-.302-.117-.421-.117-.131-.117-.131-.49-.126-.311.003-.54.045-1.386.251-1.37.335-2.034.445-2.847.473-1.071.036-1.792-.062-3.5-.476-1.132-.274-1.52-.32-1.739-.206a.505.505 0 0 0-.19.173c-.119.238-.004.959.218 1.372.242.45.827.955 1.443 1.245l.248.118v.83c0 .457.02.923.044 1.036.024.112.037.212.028.22-.032.032-1.006-.465-1.345-.686a7.109 7.109 0 0 1-1.223-.974A7.971 7.971 0 0 1 4.82 8.494a7.963 7.963 0 0 1 3.675-3.675 7.93 7.93 0 0 1 4.245-.778M7.11 8.563c-.038.023-.07.087-.07.143 0 .11.002.112.848 1.044.617.681.683.805.582 1.109-.03.093-.331.605-.669 1.139-.55.87-.61.981-.577 1.076.082.235.153.199 1.759-.881.828-.557 1.543-1.065 1.588-1.129.109-.153.139-.49.057-.647a.89.89 0 0 0-.154-.204c-.102-.095-3.172-1.694-3.248-1.692a.336.336 0 0 0-.116.042m8.05.763c-.847.44-1.582.839-1.634.887-.16.148-.216.301-.197.53a.818.818 0 0 0 .084.312c.037.056.743.557 1.569 1.113 1.612 1.085 1.712 1.136 1.793.906.034-.095-.025-.205-.576-1.076-.338-.534-.639-1.046-.669-1.139-.101-.304-.035-.428.582-1.109.847-.933.848-.934.848-1.045 0-.101-.1-.188-.207-.182-.029.002-.746.363-1.593.803m-3.96 6.738c.68.076 1.626.058 2.388-.044.512-.068.604-.056.721.097.078.101.069 2.782-.011 3.119a2.106 2.106 0 0 1-.577 1.009 2.124 2.124 0 0 1-3.042 0 2.696 2.696 0 0 1-.389-.509c-.23-.437-.249-.603-.249-2.162l-.001-1.407.128-.108c.109-.091.153-.104.29-.083.089.013.423.053.742.088" fill="black"/></svg>