<svg width="24" height="24" fill="none" xmlns="http://www.w3.org/2000/svg"><path d="M10.85 2.743a9.396 9.396 0 0 0-4.81 2.078c-.688.572-1.472 1.468-1.976 2.259-.462.725-.932 1.871-1.157 2.82-.308 1.299-.308 2.901 0 4.2.158.668.428 1.419.734 2.04.482.981 1.044 1.744 1.886 2.561 1.391 1.352 2.989 2.157 5.013 2.525.573.105 2.34.104 2.92 0 1.589-.287 2.9-.844 4.14-1.76.489-.361 1.505-1.377 1.866-1.866.916-1.24 1.472-2.548 1.76-4.14.058-.32.072-.612.072-1.46s-.014-1.14-.072-1.46c-.363-2.005-1.172-3.619-2.506-4.995-1.111-1.146-2.241-1.866-3.738-2.383-1.235-.425-2.782-.582-4.132-.419m2.282 1.34c.262.04.308.058.286.112a1.222 1.222 0 0 0-.046.207l-.021.143-1.745.87-1.746.87-.94-.013-.94-.012-.066-.38a32.63 32.63 0 0 1-.092-.545l-.025-.165.611-.305a7.983 7.983 0 0 1 2.799-.825c.419-.044 1.513-.02 1.925.043m1.948 1.736c.473.278.877.523.897.543.034.033-.098 2.836-.163 3.48-.026.26.099.171-1.149.816-.598.309-.899.446-.873.396.037-.068-.121-.161-1.696-.995L10.36 9.14V6.954l1.81-.893 1.81-.893.12.073.98.578m-8.021.031c.011.05.044.236.073.414l.054.323-.616.997a27.596 27.596 0 0 0-.673 1.125c-.033.074-.096.138-.147.15L5.147 9c-.281.066-.529.12-.55.12-.073 0-.034-.111.219-.622A7.78 7.78 0 0 1 5.846 6.9c.293-.352 1.095-1.14 1.16-1.14.018 0 .042.04.053.09m10.726.64c1.014 1.042 1.778 2.503 2.051 3.92.084.434.184 1.343.151 1.376-.024.025-1.493.214-1.644.212-.112-.001-.195-.09-.909-.976l-.785-.975.094-1.613c.052-.888.095-1.69.096-1.784.001-.165.005-.17.131-.171.139-.001.442-.122.487-.195.046-.073.075-.054.328.206M6.594 10.201l.414.558-.044 1.671c-.025.918-.055 1.855-.068 2.081-.023.402-.028.417-.176.604l-.152.193-.562.051c-.61.056-.767.044-1.11-.084-.208-.078-.231-.1-.321-.302-.159-.361-.362-1.081-.459-1.633-.13-.743-.131-1.935-.001-2.674.05-.283.099-.536.109-.562.017-.043 1.689-.452 1.876-.458.058-.002.195.152.494.555m5.095.586c1.123.593 1.649.892 1.672.95.037.091.224 2.573.196 2.596a59.2 59.2 0 0 1-1.217.478c-.66.255-1.383.534-1.607.622l-.407.159-1.248-.756c-.686-.416-1.264-.756-1.285-.756-.038 0-.01-1.69.042-2.55l.025-.41 1.08-.597a71.866 71.866 0 0 1 1.095-.6c.008-.002.752.387 1.654.864m8.255 2.121c-.151 1.468-.814 3.023-1.79 4.192-.299.359-1.058 1.107-1.2 1.183-.065.035-.074.024-.075-.092-.001-.072-.027-.761-.058-1.531l-.057-1.4.802-1.206.801-1.206.387-.047c.212-.026.548-.071.746-.1.198-.029.385-.054.416-.057.044-.003.05.048.028.264m-4.993 2.397c.5.124.928.249.952.278.027.033.062.64.095 1.625.028.865.069 1.594.09 1.62.09.112-1.685.867-2.252.957-.153.025-.187.009-.611-.279-.571-.389-1.417-1.061-1.828-1.454l-.319-.304.011-.783.011-.782 1.4-.547c.77-.301 1.432-.549 1.471-.552.038-.002.479.097.98.221m-7.346 1.68.865.864-.184.556c-.101.305-.2.555-.219.555-.048 0-.677-.413-.967-.635-.35-.267-.909-.814-1.244-1.214-.273-.326-.616-.799-.616-.849 0-.012.104-.023.23-.025.126-.001.437-.026.69-.054l.52-.058c.032-.003.449.384.925.86m2.371 1.337.556.085.514.454c.283.249.712.603.954.786l.44.333-.39.013c-.889.029-1.977-.166-2.897-.519l-.306-.117.176-.529.196-.579c.011-.03.057-.043.11-.031.05.011.341.058.647.104" fill-rule="evenodd" fill="#000"/></svg>