<svg width="24" height="24" fill="none" xmlns="http://www.w3.org/2000/svg"><path d="M7.997 2.019c-1.568.255-2.871.917-3.877 1.966-.879.918-1.444 2.043-1.774 3.535-.178.804-.206 1.115-.206 2.3 0 1.318.019 1.416.334 1.711.431.403.989.385 1.506-.047.11-.092.295-.213.41-.27.27-.133.662-.137 1.23-.012.463.101.722.091 1.074-.043.195-.073.326-.175.771-.601.295-.282.657-.593.805-.691.291-.193.638-.373.665-.345.038.041 1.5 5.493 1.481 5.524-.011.019-.107.034-.213.034-.234 0-1.232.133-1.643.219-3.287.689-5.404 2.514-5.547 4.783-.02.318-.012.408.047.532.184.388.7.509 1.02.24.181-.153.232-.281.274-.699.072-.697.322-1.222.84-1.764.945-.99 2.467-1.639 4.486-1.916.737-.101 2.535-.141 3.32-.074 2.049.174 3.853.693 5.169 1.485.433.261.683.273.951.048a.662.662 0 0 0 .17-.814c-.173-.347-1.643-1.074-2.95-1.46-1.195-.353-2.883-.62-3.925-.62-.201 0-.417-.01-.482-.023l-.116-.024-.794-2.917c-.437-1.605-.786-2.926-.776-2.936.046-.047 1.048-.101 1.676-.091.678.011.703.008.918-.093.121-.057.382-.223.58-.369.599-.444.915-.568 1.734-.686.561-.081.729-.148.921-.366.264-.3.342-.641.223-.978-.192-.545-1.645-2.112-2.671-2.882-1.103-.828-2.107-1.315-3.251-1.577-.414-.095-.58-.111-1.257-.122-.535-.009-.888.004-1.123.043m1.957 1.322c1.016.193 2.134.75 3.146 1.567.396.32 1.203 1.12 1.531 1.517l.169.206-.27.05c-.59.11-1.106.326-1.64.685l-.289.196-.111-.203c-.202-.371-.7-1.135-.994-1.523-.821-1.087-1.701-1.828-2.83-2.382L8.353 3.3l.173-.027c.263-.04 1.055-.003 1.428.068m-3.99 1.245c-.341 1.091-.559 2.072-.647 2.908A5.661 5.661 0 0 0 5.448 9.3c.046.198.091.407.101.465l.018.104-.233-.038c-.549-.09-1.239.032-1.668.295-.107.065-.206.107-.22.093-.048-.048-.009-1.266.054-1.735.159-1.166.523-2.188 1.068-2.996.254-.377.849-.977 1.229-1.241.164-.113.304-.199.313-.191.008.009-.057.247-.146.53M7.9 4.334c1.414.689 2.147 1.347 3.103 2.781.197.294.357.56.357.59 0 .042-.077.055-.33.056-.438.002-1.436.133-1.81.239-.787.221-1.584.661-2.27 1.252-.151.13-.282.229-.291.221-.06-.06-.19-.856-.208-1.273-.025-.588.02-.983.21-1.84.188-.842.625-2.28.694-2.28.014 0 .259.114.545.254m2.808 14.829c-.461.069-.785.302-1.23.883-.249.323-.364.394-.641.394-.249 0-.351-.064-.8-.498-.549-.529-.727-.638-1.012-.614-.339.028-.545.236-.545.552 0 .226.096.413.273.532.081.054.31.261.51.46s.452.417.56.486c.723.459 1.77.345 2.326-.254.105-.113.276-.317.379-.452.201-.264.369-.351.594-.306.137.028.212.096.49.444.521.651.884.854 1.529.854.745 0 1.275-.263 1.819-.904.222-.261.322-.348.435-.379.279-.075.412-.001.898.504.365.379.493.483.736.603a1.57 1.57 0 0 0 1.198.098c.358-.11.604-.303.977-.766.167-.208.356-.4.42-.429.134-.059.565-.032.758.047.067.028.201.146.298.262.269.321.504.391.803.238.655-.334.233-1.274-.734-1.632a3.088 3.088 0 0 0-.591-.126c-.835-.095-1.31.13-1.899.899-.225.295-.344.381-.524.381-.164 0-.254-.068-.715-.543-.36-.371-.489-.476-.708-.578a1.818 1.818 0 0 0-1.043-.157c-.436.061-.632.184-1.149.718-.387.399-.488.482-.637.52-.216.057-.493.06-.591.008-.039-.022-.216-.217-.393-.433-.176-.216-.419-.462-.539-.546-.34-.237-.799-.335-1.252-.266" fill-rule="evenodd" fill="#000"/></svg>