<svg width="24" height="24" fill="none" xmlns="http://www.w3.org/2000/svg"><path d="M9.439 3.198c-.981.132-1.848.879-2.161 1.862-.073.228-.093.404-.108.95l-.019.67-.766.001c-.496 0-.857.02-1.026.056C4.224 6.977 3.3 7.912 3.06 9.06c-.091.435-.088 8.766.003 9.208.123.597.343 1.015.77 1.462.405.425.814.671 1.393.839l.314.091h6.44c6.946 0 6.571.011 7.14-.211.697-.272 1.353-.911 1.641-1.6.244-.584.239-.471.238-5.197 0-4.688.004-4.579-.225-5.132a3.125 3.125 0 0 0-1.611-1.619c-.426-.179-.712-.22-1.548-.22l-.766-.001-.019-.67c-.021-.75-.083-1.024-.335-1.48-.3-.541-.9-1.034-1.506-1.238l-.329-.11-2.5-.007c-1.375-.004-2.6.006-2.721.023m5.223 1.406c.304.114.62.43.734.734.071.189.084.314.084.784v.558H8.52v-.558c0-.701.063-.904.381-1.221.392-.392.262-.377 3.087-.379 2.393-.002 2.454 0 2.674.082m3.663 3.437c.488.092.953.454 1.165.908.158.338.195.685.181 1.711l-.011.84H4.34l-.011-.84c-.014-1.026.023-1.373.181-1.711.205-.438.678-.816 1.132-.905.259-.051 12.414-.054 12.683-.003m1.354 7.189c0 1.395-.017 2.507-.041 2.67a1.65 1.65 0 0 1-.723 1.147c-.449.295.103.273-6.915.273s-6.466.022-6.915-.273a1.65 1.65 0 0 1-.723-1.147c-.024-.163-.041-1.275-.041-2.67l-.001-2.39h15.36l-.001 2.39" fill-rule="evenodd" fill="#000"/></svg>