<svg width="24" height="24" fill="none" xmlns="http://www.w3.org/2000/svg"><path d="M10.85 2.743a9.396 9.396 0 0 0-4.81 2.078c-.688.572-1.472 1.468-1.976 2.259-.462.725-.932 1.871-1.157 2.82-.308 1.299-.308 2.901 0 4.2.158.668.428 1.419.734 2.04.482.981 1.044 1.744 1.886 2.561 1.391 1.352 2.989 2.157 5.013 2.525.573.105 2.34.104 2.92 0 1.589-.287 2.9-.844 4.14-1.76.489-.361 1.505-1.377 1.866-1.866.916-1.24 1.472-2.548 1.76-4.14.058-.32.072-.612.072-1.46s-.014-1.14-.072-1.46c-.363-2.005-1.172-3.619-2.506-4.995-1.111-1.146-2.241-1.866-3.738-2.383-1.235-.425-2.782-.582-4.132-.419m1.884 1.298a7.925 7.925 0 0 1 4.82 2.215 8.004 8.004 0 0 1 2.042 8.241 8.175 8.175 0 0 1-1.443 2.603 7.857 7.857 0 0 1-2.682 2.1 7.941 7.941 0 0 1-6.942 0 7.857 7.857 0 0 1-2.682-2.1c-1.999-2.389-2.407-5.798-1.031-8.6a7.98 7.98 0 0 1 7.104-4.495c.209-.002.575.014.814.036M8.54 11.179a1.675 1.675 0 0 1-.149.038c-.154.034-.39.253-.476.443-.201.441.056 1.01.514 1.138.209.058 6.933.058 7.142 0 .197-.055.423-.256.514-.458.18-.395.011-.874-.385-1.094-.109-.06-.442-.067-3.62-.073a229.766 229.766 0 0 0-3.54.006" fill-rule="evenodd" fill="#000"/></svg>