<svg width="24" height="24" fill="none" xmlns="http://www.w3.org/2000/svg"><path d="M10.62 2.405c-.55.129-1.205.647-1.459 1.155a5.538 5.538 0 0 1-.144.275c-.008.009-.081-.043-.164-.115-.22-.194-.669-.391-1.006-.442A2.186 2.186 0 0 0 5.396 4.92c-.106.441-.047 1.031.14 1.393.072.138.066.145-.154.185-.648.117-1.345.761-1.583 1.462-.185.547-.135 1.254.125 1.748.065.123.113.225.107.228-.343.133-.779.497-1.007.84-.526.793-.45 1.924.177 2.639.25.285 7.128 6.209 7.491 6.452.769.515 1.893.986 2.748 1.152 1.675.326 3.314-.169 4.501-1.358.809-.81 1.317-1.672 1.594-2.704.194-.72.232-1.144.242-2.657l.008-1.4.307-1.18c.169-.649.435-1.657.591-2.24.157-.583.294-1.177.306-1.321.061-.767-.377-1.481-1.126-1.837-.438-.209-.685-.262-1.203-.259-1.207.006-1.819.456-2.703 1.986l-.225.389-1.172-2.249a422.887 422.887 0 0 0-1.356-2.587c-.335-.616-.831-1.013-1.473-1.179-.266-.069-.852-.078-1.111-.018m.964 1.367c.065.033.176.121.248.195.083.084.671 1.165 1.574 2.893.793 1.518 1.48 2.836 1.525 2.928l.083.168-.374.792c-.465.987-.639 1.404-.638 1.532 0 .15.133.415.258.513a.675.675 0 0 0 .578.127c.255-.068.374-.201.56-.628.095-.216.33-.716.524-1.112.194-.396.401-.837.46-.98.191-.464.773-1.584 1.023-1.966.309-.475.446-.621.695-.739.249-.117.776-.132 1.077-.03.233.08.451.289.483.464.017.096-.103.604-.442 1.871a171.24 171.24 0 0 0-.607 2.32l-.142.58-.03 1.62c-.026 1.442-.039 1.663-.116 2.013a4.47 4.47 0 0 1-.818 1.803c-.597.806-1.32 1.323-2.165 1.548-.416.111-1.209.119-1.679.018a6.864 6.864 0 0 1-2.21-.929c-.159-.106-1.862-1.555-3.784-3.219-2.651-2.296-3.512-3.063-3.567-3.179-.28-.591.115-1.251.751-1.254.37-.002.562.124 2.406 1.579.746.588 1.42 1.096 1.497 1.128a.43.43 0 0 0 .5-.102c.196-.204.217-.462.053-.656-.048-.056-.512-.437-1.032-.845-.82-.644-1.046-.849-1.703-1.534C5.118 9.172 5.13 9.186 5.056 8.933c-.055-.191-.058-.262-.02-.431a.947.947 0 0 1 .441-.615c.152-.089.23-.107.463-.106.195.001.322.024.42.076.256.136 2.017 1.926 2.93 2.977.953 1.099 1.029 1.162 1.304 1.088a.497.497 0 0 0 .362-.611c-.023-.083-.466-.625-1.199-1.471-1.105-1.276-1.205-1.405-2.078-2.685-.505-.74-.936-1.394-.958-1.453-.124-.326.015-.755.312-.961.157-.109.204-.121.487-.121.29 0 .324.009.466.124.085.068.844 1.022 1.687 2.12 1.239 1.612 1.61 2.125 1.933 2.668.419.706.533.828.774.828.277 0 .526-.284.489-.557-.012-.091-.345-.695-.921-1.669-.495-.839-.958-1.649-1.028-1.8-.705-1.519-.69-1.478-.673-1.775.013-.226.037-.306.134-.444a.93.93 0 0 1 .481-.378c.189-.07.553-.052.722.035" fill-rule="evenodd" fill="#000"/></svg>