<svg width="24" height="24" fill="none" xmlns="http://www.w3.org/2000/svg"><path d="M13.932 1.361c-1.125.109-1.847.673-2.222 1.739-.16.454-.164.492-.06.509.049.008-.061.037-.245.065-1.412.217-2.371 1.065-2.708 2.394a3.23 3.23 0 0 0-.097.613c0 .455.331.866.772.957.148.031 1.021.041 2.811.033 2.884-.012 2.756 0 3.051-.283.316-.304.376-.673.211-1.308a3.418 3.418 0 0 0-1.078-1.729c-.237-.198-.916-.53-1.217-.594-.127-.028-.23-.07-.23-.094 0-.091.272-.606.365-.691.053-.048.186-.129.295-.18.195-.09.229-.092 1.482-.092h1.282l.305.151c.509.251.834.692.913 1.239.02.138.037 2.063.037 4.28l.001 4.029-7.257.011-7.257.01-.113.084c-.397.294-.397.818 0 1.112.094.07.183.086.527.098l.415.013.02.207.066.706c.111 1.223.356 2.167.782 3.013.23.459.478.802.833 1.156l.286.286-.353.671c-.194.369-.364.735-.377.813-.054.337.22.692.566.731.419.047.558-.083 1.005-.937.31-.593.354-.658.431-.635.539.157.506.156 4.546.171 4.058.016 4.39.006 4.958-.151.154-.043.299-.078.32-.078.022 0 .203.323.402.718.408.808.477.885.821.914.402.033.71-.238.716-.629.003-.164-.051-.301-.374-.955l-.377-.763.197-.227c.581-.669.91-1.295 1.173-2.231.193-.687.283-1.273.387-2.513l.023-.267.394-.013c.322-.011.415-.029.505-.096a.64.64 0 0 0 .285-.486.625.625 0 0 0-.253-.597l-.151-.115-.912-.012-.912-.012-.011-4.328L18.9 3.74l-.105-.307c-.172-.505-.37-.817-.771-1.214-.276-.274-.443-.403-.693-.531-.564-.293-.795-.333-1.991-.349a20.001 20.001 0 0 0-1.408.022m-1.283 3.657c.409.073.705.214.966.461.196.186.415.525.483.751l.027.09h-4.124l.081-.205c.297-.754.959-1.143 1.958-1.15.165-.001.439.023.609.053M9.367 8.545a.86.86 0 0 0-.24.208l-.107.141v.91c0 .857.005.917.082 1.021.325.434.916.397 1.162-.073.043-.083.056-.305.056-.964 0-.822-.004-.861-.09-.988a1.045 1.045 0 0 0-.198-.213c-.149-.11-.49-.131-.665-.042m2.213.023a.664.664 0 0 0-.252.272c-.088.173-.091.211-.08 1.023l.012.843.112.147c.141.185.311.274.522.273a.596.596 0 0 0 .495-.207c.171-.175.211-.392.21-1.131-.001-.821-.048-.992-.33-1.202-.164-.123-.491-.131-.689-.018m2.318-.032c-.165.072-.326.273-.381.474-.028.104-.039.444-.031.911.014.729.016.748.12.906.233.351.771.406 1.043.106.165-.183.191-.339.191-1.145 0-.734-.005-.785-.093-.952a.664.664 0 0 0-.849-.3M18.6 13.91c-.001.344-.116 1.282-.216 1.76-.318 1.53-.949 2.421-1.958 2.768-.424.146-.872.162-4.454.162-3.579-.001-3.983-.015-4.452-.163-1.018-.321-1.706-1.276-2.025-2.807-.097-.466-.214-1.414-.215-1.74v-.17H18.6v.19" fill-rule="evenodd" fill="#000"/></svg>