<svg width="24" height="24" fill="none" xmlns="http://www.w3.org/2000/svg"><path d="M11.852 1.762a1.496 1.496 0 0 0-.72.67c-.096.195-.112.277-.112.568 0 .291.016.373.112.568.142.288.441.561.74.674.303.114.78.096 1.048-.039a1.62 1.62 0 0 0 .633-.623c.094-.176.107-.245.107-.58 0-.321-.015-.408-.094-.56a1.627 1.627 0 0 0-.626-.63c-.279-.145-.787-.167-1.088-.048m2.728 2.329a.748.748 0 0 0-.34.571c0 .215.153.424 1.035 1.416.703.789.871.957.94.942.047-.011.39-.065.763-.121.372-.055.683-.106.69-.113.028-.028-2.321-2.635-2.439-2.707-.175-.107-.446-.102-.649.012m-4.969.149a.743.743 0 0 0-.22.092c-.05.034-1.054.95-2.231 2.035-1.84 1.697-2.148 1.998-2.198 2.142-.032.092-.048.178-.036.191.026.026 1.91-.254 1.979-.294.136-.079 3.407-3.136 3.445-3.219a.685.685 0 0 0-.101-.76.704.704 0 0 0-.638-.187m1.329 4.601c-3.42.53-5.991.947-6.145.996-.769.245-1.392.978-1.54 1.814a2.102 2.102 0 0 0-.033.529c.081.636.988 6.772 1.039 7.029.077.389.176.62.397.931a2.323 2.323 0 0 0 1.862.952c.486.001 12.174-1.77 12.611-1.911.402-.129.672-.304.973-.633.448-.489.641-1.021.604-1.668-.019-.339-1.159-6.876-1.273-7.298-.196-.727-.862-1.376-1.631-1.589a2.264 2.264 0 0 0-.623-.069c-.255.003-2.096.274-6.241.917m6.576.457c.091.033.225.105.298.16.296.226.29.199.948 3.882.334 1.87.609 3.509.61 3.642.005.417-.284.835-.649.939-.212.06-11.996 1.839-12.183 1.839-.088 0-.229-.02-.314-.043-.21-.058-.565-.408-.62-.611-.023-.085-.27-1.708-.549-3.607-.378-2.576-.5-3.498-.48-3.634.036-.241.239-.536.464-.674.171-.106.491-.16 6.08-1.027 3.244-.504 5.973-.918 6.064-.92.091-.002.239.022.331.054" fill-rule="evenodd" fill="#000"/></svg>