<svg width="24" height="24" viewBox="0 0 24 24" fill="none" xmlns="http://www.w3.org/2000/svg"><path d="M10.850 2.743 C 9.152 2.949,7.464 3.670,6.100 4.772 C 5.661 5.126,4.878 5.941,4.536 6.400 C 3.519 7.761,2.906 9.324,2.719 11.031 C 2.650 11.658,2.690 13.003,2.794 13.560 C 2.968 14.492,3.238 15.321,3.622 16.106 C 3.764 16.395,3.880 16.651,3.880 16.675 C 3.880 16.699,3.828 16.904,3.765 17.130 C 3.568 17.833,3.502 18.311,3.502 19.040 C 3.503 19.523,3.522 19.789,3.574 20.032 C 3.751 20.851,4.039 21.441,4.479 21.882 C 4.925 22.329,5.393 22.547,6.298 22.730 C 6.886 22.849,8.285 22.858,8.874 22.747 C 9.376 22.652,9.821 22.508,10.040 22.368 C 10.293 22.208,10.611 21.845,10.758 21.550 L 10.884 21.300 11.752 21.313 C 13.092 21.333,13.910 21.208,15.102 20.798 C 16.000 20.490,17.128 19.865,17.840 19.282 C 19.609 17.833,20.827 15.771,21.196 13.600 C 21.367 12.595,21.367 11.405,21.196 10.400 C 20.995 9.217,20.484 7.927,19.810 6.900 C 18.286 4.577,15.836 3.061,13.088 2.739 C 12.473 2.667,11.461 2.669,10.850 2.743 M12.740 4.041 C 15.525 4.302,17.953 5.983,19.182 8.500 C 20.655 11.514,20.091 15.104,17.765 17.530 C 16.430 18.922,14.707 19.760,12.765 19.963 C 12.359 20.006,11.186 19.999,11.141 19.954 C 11.131 19.945,11.136 19.697,11.152 19.404 L 11.180 18.871 11.620 18.717 C 12.268 18.490,12.613 18.301,12.900 18.019 C 13.401 17.525,13.627 16.747,13.458 16.099 C 13.242 15.270,12.453 14.841,11.370 14.963 C 10.867 15.020,10.261 15.163,9.103 15.499 C 8.544 15.661,8.035 15.799,7.973 15.807 L 7.860 15.820 7.835 15.400 C 7.796 14.739,7.597 14.257,7.180 13.808 C 6.434 13.005,5.174 12.940,4.400 13.664 L 4.209 13.842 4.143 13.491 C 3.957 12.502,3.969 11.344,4.177 10.352 C 4.681 7.951,6.283 5.898,8.495 4.819 C 9.827 4.169,11.276 3.904,12.740 4.041 M8.750 6.566 C 8.289 6.613,7.803 6.811,7.340 7.140 C 7.037 7.355,6.676 7.733,6.565 7.950 C 6.459 8.159,6.453 8.403,6.553 8.494 C 6.692 8.620,6.844 8.575,7.304 8.275 C 7.544 8.119,7.848 7.939,7.980 7.877 C 8.678 7.546,9.411 7.561,10.415 7.927 C 10.660 8.016,10.990 8.137,11.150 8.195 C 11.481 8.315,11.572 8.293,11.592 8.089 C 11.609 7.922,11.480 7.684,11.246 7.450 C 10.617 6.821,9.640 6.475,8.750 6.566 M14.180 7.204 C 13.621 7.285,13.162 7.494,12.997 7.743 C 12.895 7.899,12.898 8.088,13.004 8.184 C 13.083 8.255,13.165 8.260,14.234 8.262 C 15.487 8.264,15.558 8.272,16.617 8.525 C 17.353 8.701,17.454 8.698,17.503 8.501 C 17.541 8.351,17.351 7.990,17.147 7.825 C 16.603 7.384,15.781 7.153,14.800 7.165 C 14.591 7.168,14.312 7.185,14.180 7.204 M9.020 8.357 C 8.695 8.436,8.421 8.700,8.273 9.077 C 8.146 9.399,8.149 9.966,8.278 10.300 C 8.396 10.603,8.709 10.932,8.940 10.995 C 9.179 11.061,9.283 11.051,9.514 10.936 C 10.335 10.526,10.384 9.002,9.592 8.470 C 9.502 8.410,9.387 8.360,9.337 8.360 C 9.287 8.360,9.223 8.353,9.193 8.344 C 9.164 8.335,9.086 8.341,9.020 8.357 M14.672 8.960 C 14.463 8.998,14.260 9.148,14.102 9.380 C 13.624 10.081,13.825 11.206,14.486 11.536 C 14.717 11.651,14.821 11.661,15.060 11.595 C 15.291 11.532,15.604 11.203,15.722 10.900 C 15.851 10.566,15.854 9.999,15.727 9.677 C 15.526 9.167,15.105 8.880,14.672 8.960 M10.363 12.365 C 9.500 12.469,8.519 12.831,8.330 13.116 C 8.160 13.372,8.240 13.773,8.493 13.939 C 8.692 14.070,8.835 14.083,9.075 13.995 C 10.118 13.611,10.491 13.541,11.320 13.573 C 12.142 13.606,12.829 13.767,13.540 14.096 C 13.833 14.232,14.371 14.571,14.631 14.784 C 14.993 15.082,15.567 14.862,15.629 14.403 C 15.661 14.163,15.579 13.982,15.347 13.785 C 14.614 13.163,13.446 12.637,12.360 12.440 C 11.819 12.342,10.857 12.306,10.363 12.365 M6.085 14.424 C 6.255 14.509,6.510 14.829,6.587 15.053 C 6.645 15.218,6.657 15.369,6.651 15.800 C 6.642 16.413,6.679 16.605,6.837 16.763 C 7.079 17.005,7.739 17.075,8.367 16.925 C 8.550 16.882,9.105 16.729,9.600 16.585 C 11.371 16.071,12.052 15.996,12.260 16.292 C 12.338 16.403,12.337 16.722,12.258 16.911 C 12.124 17.231,11.924 17.358,11.117 17.637 C 10.351 17.902,10.095 18.018,10.034 18.129 C 10.000 18.191,9.975 18.542,9.955 19.220 C 9.920 20.458,9.857 20.818,9.614 21.169 C 9.481 21.361,9.273 21.457,8.780 21.555 C 7.371 21.835,5.654 21.557,5.229 20.981 C 5.068 20.763,4.857 20.313,4.778 20.020 C 4.741 19.883,4.704 19.540,4.692 19.220 C 4.666 18.573,4.732 18.054,4.926 17.366 C 5.143 16.600,5.165 16.415,5.154 15.474 C 5.143 14.557,5.147 14.533,5.337 14.431 C 5.546 14.318,5.869 14.315,6.085 14.424 " stroke="none" fill-rule="evenodd" fill="black"></path></svg>