<svg width="24" height="24" fill="none" xmlns="http://www.w3.org/2000/svg"><path d="M7.64 3.881c-1.517.211-2.826.996-3.697 2.217-1.02 1.429-1.365 3.485-.899 5.362.311 1.251.974 2.603 1.838 3.744.922 1.219 2.301 2.584 3.744 3.706.939.73 2.179 1.573 2.628 1.787.869.413 1.301.262 3.24-1.132 1.935-1.393 3.513-2.882 4.614-4.354 1.122-1.502 1.792-3.032 1.99-4.543.262-1.997-.305-3.876-1.563-5.187a5.224 5.224 0 0 0-3.095-1.583c-1.626-.219-3.08.27-4.152 1.399l-.284.299-.292-.302c-.622-.643-1.429-1.118-2.232-1.315-.472-.115-1.373-.163-1.84-.098M9.186 5.28c.809.205 1.545.762 2.014 1.524.348.565.58.726.949.657.183-.034.403-.255.642-.644a3.437 3.437 0 0 1 2.034-1.543c.41-.111 1.238-.119 1.715-.016.795.171 1.38.497 1.98 1.101.775.781 1.168 1.663 1.279 2.874.077.831-.028 1.658-.323 2.546-.76 2.29-2.91 4.73-6.148 6.981-.77.536-1.21.8-1.328.8-.232 0-1.883-1.14-3.18-2.197-.66-.537-2.097-1.968-2.555-2.543-1.528-1.92-2.23-3.81-2.066-5.565.138-1.488.789-2.674 1.868-3.406.894-.606 2.099-.826 3.119-.569" fill-rule="evenodd" fill="#000"/></svg>