<svg width="24" height="24" fill="none" xmlns="http://www.w3.org/2000/svg"><path d="M9.683 3.745a6.956 6.956 0 0 0-2.734 1.002C5.176 5.883 4.051 7.609 3.741 9.671a6.057 6.057 0 0 0-.062.639l-.001.23-.2.119a2.5 2.5 0 0 0-1.042 1.308c-.09.274-.096.351-.096 1.193 0 .821.008.925.089 1.18.172.538.484.95.971 1.283l.28.191v1.372c0 1.328.003 1.38.094 1.666a2.08 2.08 0 0 0 1.378 1.375l.291.093h13.114l.291-.093a2.08 2.08 0 0 0 1.378-1.375c.091-.286.094-.338.094-1.67v-1.376l.278-.184c.472-.314.797-.738.968-1.262.108-.331.153-1.547.075-2.033a2.363 2.363 0 0 0-1.109-1.659l-.212-.127v-.231c0-.289-.098-.951-.2-1.35-.709-2.775-3.036-4.85-5.852-5.218-.644-.084-3.959-.082-4.585.003m4.777 1.372c.756.166 1.403.44 2.059.872.447.295 1.198 1.045 1.492 1.492.536.814.865 1.706.935 2.535l.026.304H5.04v-.184c0-.101.037-.366.083-.59.227-1.121.726-2.042 1.554-2.869.783-.783 1.649-1.272 2.682-1.515.6-.14.905-.156 2.861-.144 1.722.011 1.866.017 2.24.099m-2.584 1.242c-.663.12-.9.961-.399 1.414a.817.817 0 0 0 1.282-.215c.337-.607-.19-1.324-.883-1.199m-3.2 1c-.663.12-.9.961-.399 1.414a.817.817 0 0 0 1.282-.215c.337-.607-.19-1.324-.883-1.199m6.321 0c-.534.097-.823.719-.556 1.199a.817.817 0 0 0 1.282.215c.618-.559.102-1.563-.726-1.414m4.714 4.383c.196.082.44.319.533.518.064.138.074.264.075.902.001.722-.002.748-.104.954a1.022 1.022 0 0 1-.667.522c-.129.028-2.596.042-7.561.042-5.983 0-7.408-.01-7.574-.053a.992.992 0 0 1-.63-.516c-.099-.2-.103-.232-.103-.94 0-.826.023-.925.272-1.186.081-.085.22-.188.308-.229.154-.072.437-.074 7.731-.075 6.747-.001 7.588.006 7.72.061m-.719 5.488-.012 1.23-.115.17a1.068 1.068 0 0 1-.26.26l-.145.09H5.54l-.145-.09a1.068 1.068 0 0 1-.26-.26l-.115-.17-.012-1.23L4.996 16h14.008l-.012 1.23" fill-rule="evenodd" fill="#000"/></svg>