<svg width="24" height="24" fill="none" xmlns="http://www.w3.org/2000/svg"><path d="M10.85 2.743a9.396 9.396 0 0 0-4.81 2.078c-.688.572-1.472 1.468-1.976 2.259-.462.725-.932 1.871-1.157 2.82-.308 1.299-.308 2.901 0 4.2.158.668.428 1.419.734 2.04.482.981 1.044 1.744 1.886 2.561 1.391 1.352 2.989 2.157 5.013 2.525.573.105 2.34.104 2.92 0 1.589-.287 2.9-.844 4.14-1.76.489-.361 1.505-1.377 1.866-1.866.916-1.24 1.472-2.548 1.76-4.14.058-.32.072-.612.072-1.46s-.014-1.14-.072-1.46c-.363-2.005-1.172-3.619-2.506-4.995-1.111-1.146-2.241-1.866-3.738-2.383-1.235-.425-2.782-.582-4.132-.419m1.884 1.298a7.925 7.925 0 0 1 4.82 2.215 8.004 8.004 0 0 1 2.042 8.241 8.175 8.175 0 0 1-1.443 2.603 7.857 7.857 0 0 1-2.682 2.1 7.941 7.941 0 0 1-6.942 0 7.857 7.857 0 0 1-2.682-2.1c-1.999-2.389-2.407-5.798-1.031-8.6a7.98 7.98 0 0 1 7.104-4.495c.209-.002.575.014.814.036M9.08 9.035a1.1 1.1 0 0 0-.653.544c-.075.141-.086.228-.086.694l-.001.534.112.096c.111.095.125.097.892.097.774 0 .78-.001.878-.098.093-.094.098-.122.098-.586 0-.267-.021-.556-.046-.642-.061-.202-.281-.455-.485-.56-.177-.09-.549-.132-.709-.079m5.32 0c-.318.104-.591.363-.674.639-.025.086-.046.375-.046.642 0 .464.005.492.098.586.098.097.104.098.878.098.767 0 .781-.002.892-.097l.112-.096-.001-.534c0-.441-.013-.557-.074-.673a1.243 1.243 0 0 0-.482-.488c-.172-.088-.544-.129-.703-.077m-2.96 3.149c-1.832.157-3.127.642-3.897 1.459-1.072 1.136-.507 2.487 1.377 3.287 1.557.661 3.733.752 5.521.23.533-.156 1.381-.576 1.718-.851.685-.559.964-1.219.783-1.852-.093-.321-.231-.55-.512-.844-.646-.674-1.775-1.158-3.155-1.352-.431-.06-1.505-.106-1.835-.077m2.168 1.076c1.266.148 2.142.444 2.329.787.068.125.071.157.025.269-.257.62-2.739 1.06-4.986.884-1.647-.13-2.764-.466-2.938-.884-.221-.534 1.109-1.002 3.222-1.132.448-.028 1.854.018 2.348.076" fill="black"/></svg>