<svg width="24" height="24" fill="none" xmlns="http://www.w3.org/2000/svg"><path d="M11.48 2.415a1.726 1.726 0 0 0-.64.339c-.29.233-9.209 8.043-9.328 8.169a.784.784 0 0 0-.153.282c-.158.586.554 1.074 1.027.704.062-.049 2.174-1.896 4.694-4.104 2.519-2.209 4.641-4.042 4.716-4.073.115-.049.157-.05.267-.005.072.029 2.241 1.907 4.819 4.173s4.744 4.152 4.812 4.19c.271.152.679.053.846-.206.126-.196.155-.366.095-.565-.058-.195-.116-.25-2.027-1.926L19.315 8.26l.004-1.472c.002-.913-.013-1.532-.039-1.628-.087-.325-.353-.525-.697-.529-.228-.002-.344.044-.516.204-.2.185-.206.215-.227 1.19l-.02.924L15.5 4.91a183.264 183.264 0 0 0-2.527-2.197 2.122 2.122 0 0 0-.42-.241c-.267-.102-.818-.132-1.073-.057m-.968 8.948c-.448.066-.881.38-1.089.791-.165.325-.191.643-.175 2.117.015 1.292.019 1.359.106 1.579.128.32.427.636.758.799l.266.131h3.242l.229-.107c.472-.222.8-.657.873-1.158.05-.348.047-2.595-.004-2.909a1.47 1.47 0 0 0-1.267-1.245c-.325-.047-2.615-.045-2.939.002m2.924 1.253c.082.075.084.105.084 1.45 0 1.321-.003 1.377-.08 1.454-.077.077-.133.08-1.44.08s-1.363-.003-1.44-.08c-.077-.077-.08-.133-.08-1.454 0-1.258.006-1.379.07-1.435a.528.528 0 0 1 .13-.083c.033-.013.648-.02 1.366-.016 1.222.008 1.311.013 1.39.084"  fill="black" fill-rule="evenodd"/></svg>