<svg width="32" height="32"><path fill-rule="evenodd" clip-rule="evenodd" d="M14.815 25.431a1.864 1.864 0 0 1 1.922 0l4.527 2.725c1.412.85 3.152-.417 2.776-2.022l-1.197-5.12a1.864 1.864 0 0 1 .596-1.835l3.986-3.443c1.249-1.079.583-3.13-1.062-3.268l-5.253-.445a1.864 1.864 0 0 1-1.558-1.128l-2.06-4.847c-.643-1.513-2.789-1.513-3.432 0L12 10.895c-.27.636-.87 1.07-1.558 1.128l-5.253.445c-1.645.139-2.31 2.189-1.062 3.268l3.986 3.443c.524.453.754 1.16.596 1.836l-1.197 5.119c-.376 1.605 1.364 2.872 2.776 2.022z"/></svg>